<?xml version="1.0" encoding="utf-8"?>
<!-- Generator: Adobe Illustrator 23.0.3, SVG Export Plug-In . SVG Version: 6.00 Build 0)  -->
<svg version="1.1"
	 id="Lager_1" xmlns:cc="http://creativecommons.org/ns#" xmlns:dc="http://purl.org/dc/elements/1.1/" xmlns:inkscape="http://www.inkscape.org/namespaces/inkscape" xmlns:rdf="http://www.w3.org/1999/02/22-rdf-syntax-ns#" xmlns:sodipodi="http://sodipodi.sourceforge.net/DTD/sodipodi-0.dtd" xmlns:svg="http://www.w3.org/2000/svg"
	 xmlns="http://www.w3.org/2000/svg" xmlns:xlink="http://www.w3.org/1999/xlink" x="0px" y="0px" viewBox="0 0 88 88"
	 style="enable-background:new 0 0 88 88;" xml:space="preserve">
<g transform="translate(0,-952.36218)">
	<path d="M39.4,952.4c4.1,0,7.9,2.1,10.9,5c2.6,2.5,4.5,5.5,5.6,8.1c-1.2-0.2-2.5-0.2-3.6-0.2c-9.8,0.2-16.8,5.3-20.9,11.8
		c-2.3,3.7-3.6,7.8-4.1,11.9c-4.2,5.1-9.9,6.4-14,5.1c-2.1-0.6-3.7-1.9-4.6-3.6c-0.7-1.4-0.8-3.2-0.5-5.2c0.6,0.6,1.2,1.2,1.9,1.6
		c1.3,0.7,2.9,1,4.6,0.4c2.5-1.2,3.2-3.5,3.5-5.8c0.3-2.7,0.3-5.9,0.5-9.1c0.2-3.2,0.8-6.3,2.2-8.6c1.4-2.3,3.6-4,7.6-4.5
		c0.4,0,0.8-0.4,0.9-0.8C31.2,954.3,36,952.4,39.4,952.4z M52.4,967.2c3.2-0.1,6.8,0.8,9.4,2.1l-2,4c-12.9,0.3-21.6,9.4-24,18.1
		c0.3,0,0.6,0.1,0.8,0.2c0.4,0.1,0.7,0.3,1,0.6c2.1-8,10.3-16.9,22.7-16.9c3.5,0.9,6.3,4.7,7.2,7.4c0.2,0.5,0.8,0.8,1.3,0.6
		c0.5-0.2,0.8-0.8,0.6-1.3c-1-3-3.7-6.8-7.6-8.3l1.7-3.4c2.5,1.6,4.6,3.7,6.4,6.2c2.3,3.3,3.9,7.3,4.8,11.5
		c-1.1-0.4-2.2-0.4-2.2,1.3c0,2,1.4,1.8,2.7,1.1c0.2,1.4,0.3,2.8,0.3,4.1C64,997,51,996.5,39.1,994.9c0.1,0.3,0,0.6,0,0.8
		c0,0.4-0.1,0.8-0.3,1.1c12.3,1.6,25.8,2.3,37.9-0.5H80c-2.8,5.2-5.4,12.2-7.7,18.5c-0.5,1.2-0.9,2.4-1.4,3.5
		c-12.1-2-21.1-5.9-26.9-10.2c-4.1-3-6.4-6.2-7.4-9c-0.3,0.1-0.6,0.2-1,0.3c-0.4,0.1-0.8,0-1.2,0c1.1,3.5,3.9,7.1,8.3,10.4
		c6,4.5,15.1,8.4,27.3,10.5c-0.8,2-1.7,3.9-2.9,5.6c-0.4,0.5-0.8,0.6-0.8,0.6c-2.7,0-8.1-1.2-13.6-2.9c-5.4-1.7-11-3.9-15-5.8
		c-3-5.9-5.9-11.8-7.9-18.6c0,0,0,0,0,0c-1.9-6.2-0.9-14.5,3.1-21C36.9,972,43.1,967.4,52.4,967.2L52.4,967.2z M64.7,987.8
		c-4.8,0.2-12.4,2.8-12.4,3.5c0,1,16.2,2,16.2-2C68.4,988.1,66.9,987.7,64.7,987.8z M35.1,992.3c-1.7,0-3,1.3-3,3c0,1.7,1.4,3,3,3
		s3-1.3,3-3S36.8,992.3,35.1,992.3z M59.2,1002.3c-0.3,0.1-0.6,0.3-0.8,0.6l-3,6c-0.3,0.5-0.1,1.1,0.4,1.4c0.5,0.2,1.2,0,1.4-0.5
		l3-6C60.6,1003.2,60,1002.2,59.2,1002.3z M65.3,1002.3c-0.4,0.1-0.7,0.3-0.8,0.7l-3,8c-0.3,0.5,0,1.2,0.5,1.4
		c0.5,0.2,1.2-0.2,1.4-0.7l3-8C66.6,1003.1,66,1002.2,65.3,1002.3z M71.4,1002.3c-0.4,0-0.7,0.3-0.9,0.7l-3,10
		c-0.2,0.5,0.1,1.2,0.6,1.3c0.5,0.2,1.1-0.2,1.3-0.7l3-10C72.7,1003,72.1,1002.3,71.4,1002.3L71.4,1002.3z M37.4,1019.6
		c4.1,2,9.6,4.1,14.9,5.8c5.6,1.8,10.9,3,14.2,3c1.1,0,1.8-0.7,2.4-1.4c0.9,0.8,1.8,1.5,2.4,2.3l-4.1,4.1
		c-11.5-1.9-22.5-4.4-32.5-11.2C35.6,1021.3,36.5,1020.5,37.4,1019.6z M33.2,1023.7c10.6,7.2,22.2,9.8,34.1,11.8
		c0.3,0.1,0.7-0.1,0.9-0.3l4.1-4.1c0.1,0.4,0.2,0.9,0.2,1.3c0,2.4-1.6,5.1-3.5,7.9c-7.9-1-16.8-3.2-24.2-5.6
		c-3.8-1.2-7.1-2.5-9.5-3.8c-2.4-1.2-3.9-2.4-4.2-2.9c-0.1-0.4-0.1-1,0.2-1.6C31.9,1025.3,32.5,1024.5,33.2,1023.7z"/>
</g>
</svg>
