<?xml version="1.0" standalone="no"?>
<!DOCTYPE svg PUBLIC "-//W3C//DTD SVG 20010904//EN"
 "http://www.w3.org/TR/2001/REC-SVG-20010904/DTD/svg10.dtd">
<svg version="1.0" xmlns="http://www.w3.org/2000/svg"
 width="700.000000pt" height="700.000000pt" viewBox="0 0 700.000000 700.000000"
 preserveAspectRatio="xMidYMid meet">
<metadata>
Created by potrace 1.11, written by Peter Selinger 2001-2013
</metadata>
<g transform="translate(0.000000,700.000000) scale(0.100000,-0.100000)"
fill="#000000" stroke="none">
<path d="M3068 6995 c-2 -2 -30 -6 -63 -10 -127 -14 -334 -101 -435 -183 -25
-21 -53 -44 -63 -52 -39 -31 -127 -153 -156 -215 -17 -35 -39 -69 -49 -74 -11
-6 -48 -15 -83 -20 -35 -6 -80 -16 -99 -21 -19 -6 -44 -13 -56 -16 -62 -12
-219 -102 -274 -156 -170 -168 -254 -380 -295 -748 -6 -57 -13 -187 -20 -360
-18 -452 -35 -579 -95 -706 -126 -264 -440 -318 -663 -114 -32 29 -61 49 -65
45 -4 -3 -7 -64 -7 -133 0 -195 32 -279 150 -397 98 -98 179 -137 380 -182 45
-10 231 -9 285 1 239 46 426 146 615 329 95 91 96 92 110 197 7 53 8 56 39
190 184 778 745 1362 1481 1544 59 14 74 17 165 31 25 4 56 9 70 12 47 10 425
13 463 4 21 -5 37 -5 37 0 0 5 -18 46 -41 91 -182 370 -486 684 -811 837 -85
41 -222 85 -299 96 -47 7 -216 15 -221 10z"/>
<path d="M4038 5815 c-2 -2 -34 -6 -73 -10 -38 -3 -104 -13 -145 -22 -41 -8
-86 -17 -98 -19 -13 -3 -72 -21 -130 -40 -574 -191 -1014 -664 -1201 -1292
-33 -112 -69 -279 -76 -355 -3 -29 -8 -74 -11 -102 -3 -27 -6 -106 -6 -175 0
-114 3 -156 18 -275 32 -243 202 -729 415 -1185 29 -63 102 -212 161 -331
l107 -216 108 -48 c59 -26 128 -56 152 -67 153 -68 576 -227 821 -308 212 -70
591 -174 740 -204 40 -8 133 -25 165 -31 17 -2 39 -7 50 -9 34 -7 107 -16 176
-21 78 -7 98 5 159 95 39 57 144 261 170 330 7 19 18 41 23 47 10 14 -28 33
-66 33 -12 0 -62 9 -112 20 -49 12 -106 23 -125 26 -41 7 -375 89 -440 109
-393 120 -607 203 -885 341 -82 41 -157 79 -165 84 -269 163 -319 197 -470
319 -189 153 -356 341 -452 505 -40 68 -108 217 -108 237 0 5 14 7 31 5 29 -3
68 3 116 18 19 6 26 -2 61 -78 87 -185 223 -356 412 -516 35 -30 76 -65 90
-77 13 -13 28 -23 32 -23 3 0 13 -6 21 -14 26 -26 240 -163 357 -228 162 -91
327 -167 555 -258 169 -68 551 -185 735 -225 8 -2 44 -10 80 -19 82 -19 87
-20 250 -51 74 -14 140 -27 146 -29 6 -3 16 6 22 19 29 64 158 402 227 595
109 304 285 723 412 983 40 81 73 149 73 150 0 6 -277 -1 -300 -7 -23 -6 -250
-49 -315 -60 -50 -8 -135 -20 -217 -30 -110 -14 -143 -17 -206 -21 -37 -3 -80
-7 -97 -9 -167 -25 -1018 -25 -1229 -1 -17 2 -74 6 -126 10 -52 3 -113 8 -135
10 -22 2 -74 6 -115 9 -41 4 -91 9 -110 11 -19 2 -60 7 -90 11 -30 3 -64 7
-75 9 -11 1 -72 8 -135 15 -63 7 -116 14 -118 15 -1 1 2 14 8 29 5 14 10 49
11 76 2 41 5 49 18 46 9 -3 41 -8 71 -11 30 -3 62 -8 70 -10 8 -2 49 -6 90
-10 41 -3 86 -8 100 -10 14 -3 54 -7 90 -11 36 -3 83 -7 105 -10 22 -2 76 -6
120 -9 44 -3 100 -7 125 -10 264 -27 1069 -27 1325 0 22 2 67 7 100 10 132 13
351 40 405 51 14 2 39 7 55 9 51 9 189 36 206 41 12 3 15 17 14 67 -4 99 -19
245 -27 253 -2 1 -29 -6 -60 -17 -106 -36 -153 7 -149 137 1 29 8 49 27 69 24
26 30 27 84 22 l59 -5 -6 31 c-11 62 -73 267 -109 364 -45 121 -127 294 -190
399 -133 221 -361 463 -555 588 -23 15 -28 15 -39 1 -7 -8 -9 -15 -5 -15 4 0
2 -6 -4 -13 -10 -13 -111 -213 -111 -222 0 -2 25 -15 55 -29 187 -85 379 -283
491 -506 50 -101 64 -148 52 -183 -12 -34 -53 -55 -93 -48 -27 5 -36 18 -85
117 -70 141 -117 210 -208 305 -82 87 -178 155 -270 191 -52 21 -77 25 -135
22 -172 -9 -312 -30 -464 -73 -75 -20 -300 -107 -319 -122 -6 -5 -37 -23 -70
-40 -65 -34 -226 -144 -276 -187 -149 -128 -279 -272 -372 -412 -77 -114 -168
-297 -202 -406 -16 -49 -29 -90 -30 -92 -1 -1 -24 9 -53 23 -28 15 -61 27 -72
28 -24 2 -22 13 27 145 56 151 166 355 253 467 17 22 38 49 46 60 60 78 204
224 318 320 94 80 265 186 408 255 88 41 282 113 338 125 9 2 39 9 66 15 72
17 85 19 135 26 25 3 48 8 51 10 4 2 56 6 115 10 60 3 115 7 121 9 12 4 163
295 163 313 0 25 -249 110 -438 148 -66 14 -423 29 -434 19z m1339 -1663 c94
-49 92 -146 -5 -205 -64 -40 -185 -77 -302 -92 -25 -3 -61 -8 -80 -11 -57 -9
-460 -12 -530 -3 -36 4 -90 10 -120 13 -97 10 -180 32 -180 47 0 4 13 17 29
28 106 76 577 213 816 238 28 3 52 7 54 9 3 2 66 3 140 1 117 -3 142 -6 178
-25z m-2456 -367 c156 -103 140 -335 -28 -412 -163 -75 -338 36 -336 212 2
107 56 186 153 222 65 25 156 15 211 -22z m1841 -775 c53 -41 49 -58 -92 -339
-71 -143 -134 -263 -141 -266 -6 -4 -26 -11 -45 -15 -40 -9 -68 7 -82 50 -10
28 -1 50 118 289 152 304 177 333 242 281z m477 4 c13 -9 29 -30 36 -47 15
-35 23 -7 -138 -436 -98 -260 -104 -275 -138 -294 -47 -27 -82 -18 -103 28
l-17 35 126 337 c70 185 131 345 136 356 10 17 41 35 64 36 6 1 21 -6 34 -15z
m470 5 c17 -6 38 -23 45 -38 12 -24 6 -53 -80 -341 -148 -496 -161 -536 -189
-554 -33 -22 -67 -20 -93 4 -36 34 -34 47 30 260 27 91 51 172 54 180 2 8 32
112 67 230 47 156 71 223 90 243 28 31 32 31 76 16z"/>
<path d="M2867 1548 l-107 -101 57 -39 c577 -387 1335 -653 2352 -823 85 -14
158 -28 163 -31 5 -3 83 69 175 161 l166 166 -29 31 c-33 35 -84 83 -132 123
l-33 27 -35 -36 c-56 -58 -88 -70 -184 -70 -102 -1 -166 7 -342 39 -184 34
-178 32 -323 70 -474 122 -1104 346 -1533 546 -46 22 -85 39 -86 39 -1 0 -50
-46 -109 -102z"/>
<path d="M2581 1252 c-74 -100 -111 -176 -111 -227 0 -37 5 -47 45 -83 156
-144 570 -339 1045 -490 298 -96 799 -236 960 -268 14 -3 93 -20 175 -39 137
-31 392 -79 555 -105 36 -6 79 -13 95 -16 17 -3 57 -7 90 -10 l60 -5 76 123
c113 183 168 306 186 413 11 63 6 185 -7 185 -3 0 -77 -72 -165 -161 -88 -89
-173 -167 -188 -174 -24 -10 -46 -9 -130 7 -56 10 -115 21 -132 23 -16 3 -89
17 -162 31 -73 14 -145 27 -160 30 -15 3 -44 9 -63 14 -19 5 -51 12 -70 15
-19 3 -51 10 -70 15 -19 5 -47 11 -62 14 -36 6 -274 64 -313 76 -16 6 -93 28
-170 51 -192 56 -289 89 -507 174 -185 73 -458 199 -510 237 -16 11 -28 17
-28 14 0 -3 -59 30 -131 74 -73 44 -135 80 -140 80 -4 0 -9 3 -11 8 -4 10 -85
62 -97 62 -5 0 -32 -31 -60 -68z"/>
</g>
</svg>
